<svg id="b52d7e2d-d80f-4111-b6ed-d15502ee1edd" data-name="Layer 1" xmlns="http://www.w3.org/2000/svg" width="200" height="200" viewBox="0 0 711.188 669.683"><path fill="#e6e6e6" d="M516.326 380.018v184.995l30.944 50.43 2.355 3.836h122.097l2.467-239.261H516.326z"/><path opacity=".1" d="M516.326 380.018v184.995l30.944 50.43 1.899-235.425h-32.843z"/><path fill="#e6e6e6" d="M221.566 375.084V560.08l-30.944 50.43-2.355 3.835H66.17l-2.467-239.261h157.863z"/><path opacity=".1" d="M221.566 375.084V560.08l-30.944 50.43-1.899-235.426h32.843z"/><path fill="#e6e6e6" d="M711.188 371.385v11.099H47.67v-16.033l61.665-32.066h547.588l54.265 37z"/><path opacity=".1" d="M711.188 371.385v11.099H47.67v-16.033l663.518 4.934z"/><path fill="#3f3d56" d="M142.635 426.883h-29.6l-12.333-8.633h55.499l-13.566 8.633zm0 35.766h-29.6l-12.333-8.633h55.499l-13.566 8.633zm0 50.566h-29.6l-12.333-8.634h55.499l-13.566 8.634zm0 50.565h-29.6l-12.333-8.633h55.499l-13.566 8.633zm452.622-131.964h29.6l12.333-8.633h-55.499l13.566 8.633zm0 35.766h29.6l12.333-8.633h-55.499l13.566 8.633zm0 50.566h29.6l12.333-8.633h-55.499l13.566 8.633zm0 50.565h29.6l12.333-8.633h-55.499l13.566 8.633z"/><path d="M859.82 235.615H610.634a9.423 9.423 0 00-9.423 9.424v167.858a9.423 9.423 0 009.423 9.423h94.593l-3.544 22.627s-20.252 10.759-6.012 11.075 81.328 0 81.328 0 12.974 0-7.595-11.392l-3.334-22.31h93.75a9.423 9.423 0 009.424-9.423V245.039a9.423 9.423 0 00-9.424-9.424z" transform="translate(-244.406 -115.159)" fill="#3f3d56"/><path fill="#f2f2f2" d="M365.823 130.424h249.996v139.871H365.823z"/><circle cx="490.821" cy="125.994" r="1.582" fill="#f2f2f2"/><circle cx="490.821" cy="294.346" r="6.013" fill="#f2f2f2"/><path fill="#3f3d56" d="M481.452 357.952v3.165h-170.25v-2.532l.234-.633 4.196-11.392h162.339l3.481 11.392z"/><path d="M791.376 470.013c-.31 1.326-1.481 2.724-4.127 4.047-9.493 4.747-28.797-1.266-28.797-1.266s-14.873-2.531-14.873-9.177a11.866 11.866 0 011.304-.775c3.991-2.112 17.225-7.322 40.69.22a9.786 9.786 0 014.46 2.924 4.667 4.667 0 011.343 4.027z" transform="translate(-244.406 -115.159)" fill="#3f3d56"/><path d="M791.376 470.013c-11.62 4.452-21.978 4.784-32.607-2.598a23.343 23.343 0 00-13.886-4.573c3.991-2.112 17.225-7.322 40.69.22a9.786 9.786 0 014.46 2.924 4.667 4.667 0 011.343 4.027z" transform="translate(-244.406 -115.159)" opacity=".1"/><ellipse cx="532.4" cy="350.99" rx="4.114" ry="1.266" fill="#f2f2f2"/><path opacity=".1" d="M481.452 357.952v3.165h-170.25v-2.532l.234-.633h170.016z"/><path d="M339.068 115.159a8.554 8.554 0 00-4.962 1.108c-1.476 1.01-2.406 2.782-3.356 4.43A52.986 52.986 0 01316.316 137c-4.289 3.142-9.742 7.06-9.008 12.853a17.372 17.372 0 002.09 5.425c3.957 7.987 14.754 14.16 13.692 23.273 3.931-6.58-1.327-9.835 2.604-16.415 1.872-3.134 5.124-6.672 7.95-4.704.947.66 1.569 1.841 2.554 2.42 2.351 1.379 4.853-1.259 6.934-3.127 7.177-6.443 17.383-4.755 26.314-2.747 4.216.947 8.847 2.19 11.34 6.22 3.276 5.298-3.114 11.02-4.729 17.01a3.264 3.264 0 003.503 4.063c2.68-.264 5.855-.481 6.013-1.657 3.372.12 7.503-.262 8.947-3.773a14.762 14.762 0 00.693-4.293c.53-5.897 3.033-11.277 4.691-16.89s2.38-12.19-.419-17.167a19.864 19.864 0 00-3.666-4.455c-15.879-15.367-36.756-17.901-56.751-17.878z" transform="translate(-244.406 -115.159)" fill="#2f2e41"/><path d="M326.544 190.064s3.453 28.778-9.21 31.08 11.512 41.441 11.512 41.441l57.557 6.907-13.814-46.045s-9.209-3.454-3.453-26.476-42.592-6.907-42.592-6.907z" transform="translate(-244.406 -115.159)" fill="#ffb8b8"/><path fill="#ffb8b8" d="M47.028 569.318l4.605 63.313h24.173L68.9 569.318H47.028zM224.303 449.6l3.453 52.952 26.477-11.511-10.361-43.743-19.569 2.302z"/><path d="M274.167 442.738s1.151 66.766 8.058 88.638 5.756 23.022 4.605 26.476-2.303 1.151-2.303 6.907-2.302 96.695 0 104.753-6.906 21.872 0 23.023 39.139 0 40.29-6.907-9.209-9.21-4.604-13.814 11.51-98.997 11.51-98.997l16.117-65.615 29.93-34.534h63.312l19.57 75.975s-8.059 21.871-2.303 21.871 40.29 6.907 40.29-18.418-11.512-100.149-13.814-102.45 1.151-10.361-2.302-13.815-43.743-27.627-58.708-32.231-35.958-10.085-35.958-10.085zM498.639 596.99s-17.267-5.755-25.325 11.512-4.605 21.871-4.605 21.871 26.476 9.21 31.08 4.605c2.004-2.003 8.365-2.7 14.913-2.846 9.973-.224 12.627-14.333 3.208-17.619q-.421-.147-.853-.255c-9.21-2.303-18.418-17.267-18.418-17.267z" transform="translate(-244.406 -115.159)" fill="#2f2e41"/><circle cx="108.038" cy="59.365" r="34.534" fill="#ffb8b8"/><path d="M307.55 235.534s56.406 11.511 70.22-6.907 19.569 51.801 19.569 51.801l6.906 73.673-10.36 40.29s-54.103 43.743-71.37 47.196-43.743 5.756-43.743 5.756 8.058-127.776 8.058-130.079 20.72-81.73 20.72-81.73z" transform="translate(-244.406 -115.159)" fill="#fd63ff"/><path d="M324.704 213.945s-12.55-7.19-16.003-.283-35.685 24.174-39.139 24.174 6.907 95.544 2.303 107.056-26.476 95.544-13.814 102.45 3.454-6.906 16.116 10.361 74.824 17.267 78.277 10.36-27.627-58.708-21.871-107.055 14.964-115.114 6.907-124.323-12.776-22.74-12.776-22.74zm41.554 7.775l1.603-5.518s47.896 15.878 50.198 26.239 1.151 82.881-6.907 88.637-19.569 14.965-11.511 28.778 17.267 28.779 24.174 29.93 19.57 9.21 16.116 17.267-44.895-6.907-44.895-6.907-27.627-20.72-26.476-52.952-2.302-125.474-2.302-125.474z" transform="translate(-244.406 -115.159)" fill="#2f2e41"/><path d="M406.548 357.554l-27.628 51.801s-40.29 41.441-17.267 46.046 35.686-37.988 35.686-37.988l29.93-42.592z" transform="translate(-244.406 -115.159)" fill="#ffb8b8"/><path d="M340.75 124.195a7.838 7.838 0 00-4.039.783 9.413 9.413 0 00-2.732 3.13 39.773 39.773 0 01-11.75 11.525c-3.491 2.22-7.93 4.99-7.333 9.084a11.36 11.36 0 001.702 3.835 30.163 30.163 0 013.665 18.8l9.6-13.954c1.524-2.215 4.172-4.715 6.473-3.324.77.466 1.276 1.301 2.078 1.71 1.914.975 3.95-.89 5.644-2.21 5.843-4.554 14.15-3.36 21.421-1.942 3.432.67 7.202 1.549 9.231 4.397 3.372 4.733-.149 11.572 1.819 17.04a5.023 5.023 0 002.078-3.317c2.745.085 6.108-.185 7.284-2.667a9.188 9.188 0 00.564-3.034c.431-4.168 2.469-7.97 3.818-11.938s1.937-8.616-.34-12.133a14.681 14.681 0 00-2.985-3.15c-12.926-10.86-29.921-12.652-46.198-12.635zm65.798 113.641l10.725 2.847s24.96 63.919 19.204 107.662-9.209 34.534-9.209 34.534-9.209-20.72-29.93-16.116zM293.029 739.422c-2.776 3.772-2.22 9.165-4.678 13.15-2.132 3.456-6.149 5.268-8.815 8.33a22.326 22.326 0 00-2.266 3.26c-2.473 4.142-4.483 9.451-2.048 13.616 1.96 3.35 6.078 4.66 9.855 5.552 4.775 1.128 9.735 2.03 14.564 1.168s9.549-3.819 11.27-8.412a32.5 32.5 0 011.206-3.4c2.617-5.154 10.827-5.21 13.506-10.33 1.875-3.585.151-7.917-1.571-11.576l-5.261-11.177c-1.746-3.71-8.824-1.577-12.514-2.465-4.812-1.16-9.786-2.437-13.248 2.284z" transform="translate(-244.406 -115.159)" fill="#2f2e41"/><path d="M254.598 380.577l48.347 74.824s29.93 37.987 39.14 20.72-32.233-46.045-32.233-46.045l-31.08-57.557z" transform="translate(-244.406 -115.159)" fill="#ffb8b8"/><path d="M278.772 240.138l-9.21-2.302s-18.418 5.756-23.022 29.93-1.151 120.869 4.604 122.02 28.428-16.837 32.057-13.023-7.883-15.755-4.43-26.116 0-110.509 0-110.509z" transform="translate(-244.406 -115.159)" fill="#2f2e41"/><g id="f3c2397c-d780-4cc6-97d8-1503d8277a2c" data-name="Group 13" fill="#fd63ff"><path id="ad41612f-86f7-46b2-a964-3a5da7bcf3cf" data-name="Rectangle 55" d="M437.407 176.363h29.752v7.163h-29.752z"/><path id="b9a0b375-cc2a-4c59-8850-661af54e4f62" data-name="Rectangle 56" d="M559.722 176.363h10.468v7.163h-10.468z"/><path id="e174c2ab-9bc5-41ec-b37c-b06fbf8a9878" data-name="Rectangle 57" d="M580.659 176.363h10.468v7.163h-10.468z"/><path id="ba2479ac-4c7d-43b4-a028-73b1e20e4002" data-name="Rectangle 58" d="M477.628 176.363h71.075v7.163h-71.075z"/><path id="ac60ef86-00f2-480b-8171-28b6fdfc1958" data-name="Rectangle 59" d="M399.941 222.644h29.752v7.163h-29.752z"/><path id="b3d8298d-cd65-487a-8b19-4cee946356e7" data-name="Rectangle 60" d="M522.256 222.644h10.468v7.163h-10.468z"/><path id="ed27f15f-f0c4-4569-8330-a6688f8e356c" data-name="Rectangle 61" d="M543.193 222.644h10.468v7.163h-10.468z"/><path id="f685c005-adaf-4d60-acda-005b037d82a6" data-name="Rectangle 62" d="M440.162 222.644h71.075v7.163h-71.075z"/><path id="eca7c7fc-83f8-48ca-a588-6606db47af3f" data-name="Rectangle 63" d="M522.807 192.341h29.752v7.163h-29.752z"/><path id="a71b5b2f-f8b9-481d-a301-5e3357e5fe42" data-name="Rectangle 64" d="M563.028 192.341h29.752v7.163h-29.752z"/><path id="abb3a25a-f854-41fc-8391-e6ad9fbe2417" data-name="Rectangle 66" d="M399.941 192.341h10.468v7.163h-10.468z"/><path id="add2b425-b775-4eb5-9c25-8c4c14f957c9" data-name="Rectangle 67" d="M420.878 192.341h10.468v7.163h-10.468z"/><path id="b7159612-3b84-4b0b-a885-612eaab04c06" data-name="Rectangle 68" d="M441.815 192.341h71.075v7.163h-71.075z"/><path id="edfc7301-4de5-47dc-80e2-1ae2da982d6d" data-name="Rectangle 69" d="M461.099 207.768h29.752v7.163h-29.752z"/><path id="e1009f91-6275-4375-80fa-0d778e331fdc" data-name="Rectangle 70" d="M420.878 207.768h29.752v7.163h-29.752z"/><path id="a060fb9f-1f1a-4862-9a69-16dd49199e18" data-name="Rectangle 71" d="M399.941 207.768h10.468v7.163h-10.468z"/><path id="b6754d5f-104f-449c-b9a9-cf9ac82bf5fe" data-name="Rectangle 73" d="M582.312 207.768h10.468v7.163h-10.468z"/><path id="e6ed1ccd-2cfd-450f-a339-07df3a1ee6bb" data-name="Rectangle 74" d="M500.768 207.768h71.075v7.163h-71.075z"/></g></svg>